<?xml version="1.0" encoding="utf-8"?>
<!DOCTYPE svg PUBLIC "-//W3C//DTD SVG 1.1//EN" "http://www.w3.org/Graphics/SVG/1.1/DTD/svg11.dtd">
<svg version="1.1" xmlns="http://www.w3.org/2000/svg" x="0px" y="0px" width="16px" height="16px" viewBox="0 0 16 16">
<path fill="#000000" d="M10.741,1.761c0.899,0.108,2.319,0.378,2.319,1.079c0,0.665-1.096,0.899-2.75,1.241
	C9.214,4.314,7.847,4.513,6.66,4.638C6.589,5.268,6.553,6.076,6.517,6.921c1.294-0.396,2.248-0.396,2.949-0.396
	C9.483,6.22,9.429,5.969,9.32,5.734l0.146-0.107c0.467,0.252,0.755,0.575,0.88,0.971c2.912,0.341,4.98,1.959,4.98,4.404
	c0,2.661-2.229,4.495-7.911,4.998l-0.108-0.342c4.027-0.575,5.915-2.535,5.933-4.746c0-1.798-0.917-3.164-2.769-3.631v0.144
	c0,0.863-0.972,2.948-2.643,4.691c0.162,0.288,0.288,0.505,0.288,0.756c0,0.342-0.18,1.024-0.773,1.024
	c-0.216,0-0.558-0.161-0.863-0.574c-1.114,0.827-2.373,1.401-3.739,1.401c-0.953,0-2.068-0.594-2.068-1.941
	c0-2.157,1.672-4.278,4.404-5.429c0.019-0.881,0.019-1.798,0.036-2.625C4.773,4.746,4.413,4.764,4.089,4.764
	c-1.474,0-2.319-0.845-2.571-1.761L1.681,2.84C2.076,3.254,2.777,3.452,3.82,3.452c0.396,0,0.899-0.036,1.331-0.054
	c0.018-0.594,0.036-1.24,0.036-1.564c0-0.701-0.18-1.006-1.294-0.917l-0.036-0.09C4.072,0.359,4.665,0,5.241,0
	c1.348,0,2.247,0.539,2.247,1.115c0,0.287-0.342,0.575-0.432,0.971C6.984,2.391,6.93,2.768,6.858,3.2
	c1.024-0.126,3.649-0.557,3.812-1.384L10.741,1.761z M3.424,12.998c0.647,0,1.457-0.377,2.229-0.953
	C5.222,10.948,5.078,9.744,5.078,8.27c-1.744,1.042-2.75,2.39-2.75,3.757C2.328,12.765,2.58,12.998,3.424,12.998z M6.517,7.55
	c0,0.756,0,2.086,0.539,3.291c1.097-1.043,2.031-2.626,2.319-3.722C9.214,7.101,9.033,7.101,8.908,7.101
	C8.206,7.101,7.218,7.299,6.517,7.55z"/>
</svg>
